
<svg version="1.0" xmlns="http://www.w3.org/2000/svg"
 width="204.000000pt" height="192.000000pt" viewBox="0 0 204.000000 192.000000"
 preserveAspectRatio="xMidYMid meet" fill="#fff" stroke="#415cd4">
<metadata>
Created by potrace 1.10, written by Peter Selinger 2001-2011
</metadata>
<g transform="translate(0.000000,192.000000) scale(0.100000,-0.100000)"
fill="#fff" stroke="#415cd4">
<path d="M1 963 l-1 -963 1020 0 1020 0 -1 963 c-1 529 -5 946 -9 927 l-7 -35
-2 33 -1 32 -1000 0 -1000 0 -1 -27 -1 -28 -8 30 c-4 17 -8 -403 -9 -932z
m1949 -8 l0 -905 -930 0 -930 0 0 905 0 905 930 0 930 0 0 -905z m77 -367 c-1
-205 -2 -40 -2 367 0 407 1 575 2 373 2 -201 2 -534 0 -740z"/>
<path d="M114 1825 c-2 -5 -3 -401 -2 -880 l3 -870 907 -3 908 -2 0 880 0 880
-62 0 c-1068 5 -1751 3 -1754 -5z m1402 -353 c16 -20 18 -115 4 -143 -8 -14
-21 -19 -50 -19 -43 0 -60 -18 -60 -64 0 -24 4 -26 43 -26 24 0 48 -5 55 -12
14 -14 16 -136 2 -158 -6 -10 -24 -14 -55 -13 l-45 1 0 -241 c-1 -185 -4 -246
-14 -259 -19 -25 -147 -26 -167 -1 -11 12 -15 73 -19 257 l-5 241 -25 3 c-38
5 -50 29 -50 98 0 65 8 80 49 86 21 3 26 11 37 66 22 110 81 181 166 203 48
12 118 2 134 -19z m-646 -5 c69 -20 146 -70 166 -108 8 -16 20 -29 26 -29 6 0
9 -3 6 -6 -4 -3 0 -22 9 -42 24 -57 18 -183 -11 -247 -39 -85 -117 -152 -201
-171 -11 -3 -52 -8 -92 -11 -60 -5 -72 -9 -77 -25 -2 -11 -4 -78 -4 -149 0
-88 -4 -134 -12 -144 -16 -19 -138 -21 -163 -2 -15 10 -18 43 -23 267 -3 140
-2 346 2 458 7 198 7 203 30 215 35 18 275 14 344 -6z"/>
<path d="M1340 1448 c-60 -31 -102 -110 -104 -196 l-1 -59 -42 5 -43 5 0 -73
0 -73 43 5 42 5 0 -260 0 -259 75 0 75 0 5 258 5 259 54 0 53 0 0 65 0 65 -56
0 -56 0 0 48 c0 61 33 100 82 95 l31 -3 0 65 1 65 -60 3 c-46 2 -69 -3 -104
-20z"/>
<path d="M522 1004 l3 -455 73 -2 72 -2 0 161 0 161 83 6 c45 3 99 11 119 17
60 17 130 71 163 124 28 47 30 55 30 155 0 98 -2 110 -28 153 -60 104 -153
138 -369 138 l-148 0 2 -456z m329 300 c49 -29 71 -76 66 -147 -6 -101 -62
-147 -179 -147 l-68 0 0 161 0 162 74 -5 c48 -3 86 -12 107 -24z"/>
<path d="M733 1302 l-33 -3 0 -135 0 -134 44 0 c101 0 160 56 153 146 -6 91
-64 136 -164 126z"/>
</g>
</svg>
